<?xml version="1.0" encoding="utf-8"?>
<!-- Generator: Adobe Illustrator 24.2.3, SVG Export Plug-In . SVG Version: 6.00 Build 0)  -->
<svg version="1.1" xmlns="http://www.w3.org/2000/svg" xmlns:xlink="http://www.w3.org/1999/xlink" x="0px" y="0px"
	 viewBox="0 0 750 500" style="enable-background:new 0 0 750 500;" xml:space="preserve">
<style type="text/css">
	.st0{display:none;}
	.st1{display:inline;fill:#FFFFFF;}
	.st2{fill:#E4EBF7;}
	.st3{fill:#FFFFFF;}
	.st4{fill:#FFFFFF;stroke:#0F22D3;stroke-width:1.6103;stroke-miterlimit:10;}
	.st5{fill:#98B2D8;}
	.st6{fill:#B1C3E8;}
	.st7{fill:#B7CAE5;}
	.st8{fill:#97B3D1;}
	.st9{fill:#CED9EA;}
	.st10{fill:#B6C5DD;}
	.st11{fill:#5D7CA0;}
	.st12{fill:#799CBF;}
	.st13{fill:#F2F4F9;}
	.st14{fill:#C1CFE5;}
	.st15{fill:url(#SVGID_1_);}
	.st16{opacity:0.22;fill:#1F395E;}
	.st17{fill:url(#SVGID_2_);}
	.st18{fill:url(#SVGID_3_);}
	.st19{fill:#1F395E;}
	.st20{fill:url(#SVGID_4_);}
	.st21{fill:#3150BC;}
	.st22{fill:#FEB19E;}
	.st23{fill:#FF856A;}
	.st24{fill:url(#SVGID_5_);}
	.st25{opacity:0.6;fill:#9ABCED;}
	.st26{fill:#9ABCED;}
	.st27{fill:#C1C8D3;}
	.st28{fill:url(#SVGID_6_);}
	.st29{fill:url(#SVGID_7_);}
	.st30{fill:#4F7EB7;}
	.st31{opacity:0.71;fill:#7CA6D8;}
	.st32{fill:#EA9BA1;}
	.st33{opacity:0.5;}
	.st34{fill:#7CA6D8;}
	.st35{fill:#E83F54;}
	.st36{opacity:0.5;fill:#9ABCED;}
</style>
<g id="BACKGROUND" class="st0">
	<rect class="st1" width="750" height="500"/>
</g>
<g id="OBJECTS">
	<g>
		<g>
			<path class="st2" d="M623.44,284.04c0.13,18.23-1.1,34.94-3.37,49.72c-0.16,1.11-0.34,2.22-0.53,3.3
				c-1.19,7.2-2.64,13.91-4.28,20.11c-0.29,1.06-0.58,2.11-0.87,3.14c-6.31,22.06-15.28,36.97-24.85,42.48H187.73
				c0,0-34.25-29.69-41.13-72.11c-0.18-1.08-0.34-2.16-0.47-3.25c-2.67-21.11,1.63-45.15,20.13-70.16
				c8.44-11.38,19.53-19.31,32.27-24.77c1-0.42,1.98-0.82,3-1.21c18.89-7.39,41.08-9.71,63.36-10.06c1.13-0.02,2.25-0.03,3.38-0.03
				c13.27-0.1,26.5,0.45,39.05,0.95c1.19,0.06,2.37,0.11,3.54,0.16c20.26,0.85,38.52,1.48,51.77-0.95h0.02
				c1.22-0.23,2.38-0.48,3.51-0.77h0.02c14.67-3.59,21.9-11.92,16.7-29.82c-10.08-34.73,0.24-60.19,22.7-74.25
				c1.14-0.72,2.33-1.42,3.54-2.08c12.7-6.89,28.76-10.5,46.92-10.45c1.27,0,2.56,0.03,3.86,0.06c15.44,0.47,32.3,3.51,49.81,9.32
				c9.42,3.12,18.2,6.99,26.33,11.45c1,0.55,2,1.11,2.96,1.69c15.94,9.21,29.36,20.84,40.47,33.98c0.76,0.87,1.48,1.76,2.21,2.66
				C610.56,198.75,623.15,244.69,623.44,284.04z"/>
			<path class="st3" d="M615.26,357.18c-0.29,1.06-0.58,2.11-0.87,3.14c-5.94-2.13-12.19-4.85-18.58-8.31
				c-29.47-16.01-66.99-51.66-78.36-130.69c-4.9-34.07,1.35-66.52,18.6-96.49c1,0.55,2,1.11,2.96,1.69
				c-15.14,26.28-23.64,57.7-18.37,94.33c11.18,77.63,47.79,112.59,76.55,128.24C603.37,352.46,609.46,355.12,615.26,357.18z"/>
			<path class="st3" d="M620.07,333.77c-0.16,1.11-0.34,2.22-0.53,3.3c-18.61-8.74-42.08-27.76-53.03-69.05
				c-10.58-39.98-6.36-75.47,12.96-107.52c0.76,0.87,1.48,1.76,2.21,2.66c-18.37,31.05-22.29,65.39-12.04,104.04
				C580.11,306.7,602.28,325.15,620.07,333.77z"/>
			<path class="st3" d="M444.38,171.49c1.56,52.46-4.41,86.36-19.37,109.93c-15.67,24.7-41.8,39.63-84.75,48.4
				c-8,1.64-15.91,2.46-23.67,2.46c-24.17,0-46.94-7.87-66.89-23.27c-23.2-17.92-40.97-44.91-51.16-76.5c1-0.42,1.98-0.82,3-1.21
				c9.98,31.06,27.39,57.6,50.14,75.17c25.57,19.76,55.99,26.73,87.94,20.21c79.87-16.34,104.54-54.04,101.54-155.1
				c-0.85-28.69,4.15-51.34,14.89-67.58c1.27,0,2.56,0.03,3.86,0.06C448.74,119.85,443.52,142.45,444.38,171.49z"/>
			<path class="st3" d="M344.72,280.05c-3.32,0.55-6.75,0.84-10.24,0.84c-25.75,0-55.23-15.6-69.58-59.64
				c1.13-0.02,2.25-0.03,3.38-0.03c15.81,47.28,49.71,59.97,75.91,55.67c35.39-5.8,69.43-42.24,62.85-98.35
				c-2.83-24.07-2.96-44.62-1.45-62c1.14-0.72,2.33-1.42,3.54-2.08c-1.76,17.7-1.82,38.79,1.11,63.7
				C417.05,236.25,381.56,274.01,344.72,280.05z"/>
			<path class="st3" d="M366.17,220.6c-1.24,5.65-3.41,11.42-7.13,16.26c-4.94,6.47-11.88,10.31-20.63,11.38
				c-1.05,0.13-2.08,0.19-3.09,0.19c-5.43,0-10.4-1.85-14.81-5.56c-5.83-4.9-10.08-12.5-13.17-20.72c1.19,0.06,2.37,0.11,3.54,0.16
				c2.87,7.28,6.67,13.86,11.71,18.1c4.51,3.78,9.71,5.35,15.43,4.64c7.86-0.97,14.06-4.38,18.47-10.13
				c3.06-3.99,4.99-8.78,6.17-13.56h0.02C363.88,221.15,365.04,220.89,366.17,220.6z"/>
			<path class="st3" d="M241.13,402.8h-3.51c-14.44-33.07-35.26-55.12-61.96-65.57c-9.69-3.8-19.53-5.78-29.05-6.54
				c-0.18-1.08-0.34-2.16-0.47-3.25c10.03,0.72,20.43,2.79,30.69,6.8C204.71,345.15,226.31,368.18,241.13,402.8z"/>
		</g>
		<g>
			<rect x="463.01" y="462.49" class="st4" width="0" height="0"/>
			<g>
				<g>
					<g>
						<path class="st5" d="M171.43,303.12l-9.95,10.26l-4.15-6.1l-1.38-2.05c-4.43,1.11-10.97-7.55-13.59-12.17
							c-2.61-4.64,7.86-11.79,7.86-11.79c-1.71-5.12-8.57-8.34-8.76-9.76c-0.19-1.4,1.51-2.91,7.75,0
							c6.25,2.93,11.67,13.28,11.67,13.28c1.11-3.01-3.82-11.16-2.91-12.08c0.9-0.9,5.73,0.21,9.45,8.05
							c3.74,7.86,1.51,17.12,1.51,17.12l0.05,0.08L171.43,303.12z"/>
						<path class="st6" d="M149.84,280.37c0,0,7.39,8.46,6.6,11.78c-0.8,3.32-4.52-0.53-4.52-0.53s3.42,3.95,2.31,5.26
							c-1.11,1.31-5.23-2.01-5.23-2.01s4.93,6.14,0,5.23s-11.13-10.21-6.37-11.14c0,0-0.58-6.77,3.75-4.46
							C146.38,284.5,144.44,278.85,149.84,280.37z"/>
					</g>
					<path class="st7" d="M239.68,402.86c0,0,8.33-24.31,3.95-48.29c0,0-0.02-0.05-0.03-0.16c0-0.05-0.02-0.11-0.03-0.19
						c-0.13-0.63-0.26-1.26-0.39-1.88c0,0-4.83,4.22-11.5,8.41c-8,5.04-18.68,10.05-26.88,7.7c-15.04-4.3-37.04-33.54-47.25-56.63
						c0,0,5.1-7.65,15.3-10c0,0,20.4,27.18,38.39,33.62c0,0,9.66-11.55,17.17-28.45c4.8-10.79,12-17.62,21.08-21.29
						c5.15-2.11,10.92-3.19,17.18-3.38l15.76-7.36c0,0,2.56,0.02,6.54,0.53c7.39,0.97,19.68,3.67,29.61,11.24
						c15.3,11.66,37.31,116.15,37.31,116.15H239.68z"/>
					<path class="st8" d="M243.6,354.41c-0.13-0.69-0.27-1.38-0.42-2.08c0,0-4.83,4.22-11.5,8.41l4.65-39.81
						C241.07,339.16,243.34,352.78,243.6,354.41z"/>
					<path class="st9" d="M288.97,275.47c-2.43,15.46-17.91,29.74-29.08,29.55c-8.99-0.16-10.31-13.04-10.4-19.34
						c5.15-2.11,10.92-3.19,17.18-3.38l15.76-7.36C282.44,274.94,285,274.96,288.97,275.47z"/>
					<path class="st8" d="M262.22,387.06c0,0,35.5-36.95,37.05-75.79l10.47,32.74l-4.03,34.09L262.22,387.06z"/>
					<path class="st5" d="M261.19,402.85h-39.75c0,0,0.1-5.43,6.24-7.25c6.14-1.81,10.06-9.46,28.48-8.45L261.19,402.85z"/>
					<path class="st10" d="M301.86,366.32c0,0-18.73,10.77-48.22,18.42c0,0-4.09,9.86,3.09,18.12h57.06L301.86,366.32z"/>
				</g>
				<g>
					<path class="st11" d="M232.13,253.41c0,0-8.48-11.7-7.43-19.58s8.34-6.03,8.34-6.03s-0.34-19.15,17.38-14.25
						c0,0-0.39-5.85,3.48-5.69c3.87,0.15,9.94,9.05,9.94,9.05s1.51-6.59,4.13-5.04c2.62,1.56,3.43,8.36,8.9,11.64
						c5.47,3.28,8.86,7.52,4.56,20.8c-4.3,13.28-1.07,14.22-2.61,21.04c-1.46,6.48-2.62,10.42-6.64,10.78
						c-4.02,0.36-19.41-15.87-19.41-15.87L232.13,253.41z"/>
					<path class="st5" d="M282.44,274.94c0,0-9.87,23.94-20.24,22.14c-5.15-0.9-6.3-4.04-6.34-7.68c-0.05-4.75,1.8-10.32-1-12.66
						l12.43-17.66l2.74-3.9C270.02,255.18,273.37,264.88,282.44,274.94z"/>
					<path class="st12" d="M255.85,289.4c-0.05-4.75,1.8-10.32-1-12.66l12.43-17.66c1.06,1.24,1.82,3.45,2.13,6.91
						C271.05,284.23,261.41,288.47,255.85,289.4z"/>
					<path class="st5" d="M230.92,244.1c0,0,3.36,30.84,15.95,37.79c10.94,6.03,24.22-12.22,23.96-21.24c0,0,4.77-3.64,3.97-9.53
						s-7.03-3.94-7.77,5.56c0,0-5.07-0.36-6-12.23c-3.18,2.63-6.61,1.82-10.22-1.38c0,0-1.79,6.61-11-1.11
						C239.8,241.94,236.32,246.66,230.92,244.1z"/>
				</g>
			</g>
			<g>
				<g>
					<path class="st11" d="M527.79,363.6c0,0,16.25,27.11,21.87,40.26h-57.29c0,0-3.26-15.85-9-31.07L527.79,363.6z"/>
					<path class="st12" d="M505.45,369.64c-3.14,10.39-7.92,19.26-15.01,25.99l1.94,8.22L423.06,403l7.72-47.45L505.45,369.64z"/>
				</g>
				<g>
					<path class="st12" d="M614.2,221.71c0,0,2.29-14.37,6.86-19.47c4.56-5.1,17.04-12.64,18.52-9.96c1.48,2.68-11,11.1-11,11.1
						s5.64-1.34,10.47,6.98c4.83,8.32-10.74,14.76-10.74,14.76l-3.09,6.98l-12.35-7.78L614.2,221.71z"/>
					<path class="st5" d="M630.16,203.65c0,0-6.96,7.07-5.94,9.09c1.02,2.02,4.85-1.15,4.85-1.15s-3.13,4.76-0.7,5.99
						c2.43,1.23,6.18-2.89,6.18-2.89s-3.13,4.33-1.33,5.13c1.8,0.79,11.42-5.99,9.7-7.58c-1.72-1.59-2.66-0.29-2.66-0.29
						s2.01-3.39,0-4.48c-2.19-1.18-3.29,0.94-3.29,0.94s1.64-2.6,0.31-3.61s-4.15,0.29-4.15,0.29S634.06,200.77,630.16,203.65z"/>
					<path class="st5" d="M623.7,203.48c-2.11-0.6-6.41,3.79-6.41,3.79c-1.69,2.17-2.03,6.5-2.1,8.5c-0.22,5.58-2.33,8.54-2.33,8.54
						l6.27,3.95c4.85-6.25,3.26-14.25,2.48-17.09C623.98,207.64,624.96,203.84,623.7,203.48z"/>
				</g>
				<g>
					<path class="st7" d="M627.76,233.57c0,0-20.93,55.75-54.2,60.69c-14.88,2.21-26.12,2.43-33.98,2.01
						c-9.37-0.48-13.98-1.9-14.32-2c-0.02,0-0.02-0.02-0.02-0.02s-9.13,17-3.22,41.43c5.89,24.41,8.05,29.52,8.05,29.52
						s-44.85,32.98-81.32,2.95l-32.91-51.17l-10.31-16.04c0,0,9.47-31.09,36.17-51.3l0.02-0.02c10.06-7.63,22.59-13.72,37.97-15.97
						c7.89-1.19,16.52-1.37,25.96-0.24c0,0,7.25,2.05,19.03,6.36c6.34,2.32,14.01,5.3,22.56,8.97
						c24.43,10.47,31.14,13.59,31.14,13.59s26.02-25.67,32.74-41.24C611.12,221.09,624.54,222.45,627.76,233.57z"/>
					<path class="st8" d="M459.81,259.03c-0.12,12.49-2.79,24.6-3.97,34l20.69-4.19l32.19,31.82c0,0,4.08,9.32-4.22,10.93
						c-6.51,1.26-36.91,5.49-36.91,5.49c-7.01,9.54-10.17,24.12-13.67,38.28l-30.86-53.63L459.81,259.03z"/>
					<path class="st9" d="M505.65,262.03c-14.41-3.66-22-16.62-25.96-28.37c7.89-1.19,16.52-1.37,25.96-0.24
						c0,0,7.25,2.05,19.03,6.36C526.07,250.06,525.57,267.07,505.65,262.03z"/>
					<path class="st8" d="M543.49,273.43c0,0-3.09,12.11-3.91,22.85c-9.37-0.48-13.98-1.9-14.32-2c-0.02,0-0.02-0.02-0.02-0.02
						S533.43,280.27,543.49,273.43z"/>
				</g>
				<g>
					<path class="st13" d="M507.52,325.97l-35.95,5.22c-1.06,0.15-2.05-0.58-2.2-1.65l-7.94-54.71c-0.15-1.06,0.58-2.05,1.65-2.2
						l35.95-5.22c1.06-0.15,2.05,0.58,2.2,1.65l7.94,54.71C509.32,324.83,508.58,325.81,507.52,325.97z"/>
					<path class="st5" d="M481.36,291.14l5.5-2.15c0,0,5.23-14.49,11.74-5.37c0,0,4.5-2.68,4.36-4.16c-0.13-1.48-0.2-3.62-0.2-3.62
						s9.11,1.97,7.07,14.67s-9.82,11.09-17.47,11.23l-9.53,3.76L481.36,291.14z"/>
					<path class="st14" d="M484.91,308.85c0,0-42.87,28.37-61.38,14.69c-2.82-2.09-5.38-4.3-7.68-6.55l-10.31-16.04
						c0,0,9.47-31.09,36.17-51.3l0.02-0.02c8.85-3.98,18.1-2.53,18.57,5.67c1.13,19.53-15.57,31.54-17.64,40.4l38.42-7.78
						C481.08,287.92,487.33,294.55,484.91,308.85z"/>
				</g>
				<g>
					<path class="st11" d="M535.3,203.7c0,0,6.13-13.09,3.62-20.63c-2.51-7.54-9.32-4.35-9.32-4.35s-3.27-18.87-19.75-10.73
						c0,0-0.72-5.81-4.49-4.94c-3.77,0.88-8.06,10.76-8.06,10.76s-2.72-6.19-5-4.17c-2.28,2.02-1.8,8.86-6.56,13.11
						c-4.76,4.25-7.29,9.05-0.57,21.29c6.72,12.24,3.73,13.77,6.52,20.18c2.65,6.09,4.53,9.74,8.55,9.34
						c4.02-0.4,16.08-19.24,16.08-19.24L535.3,203.7z"/>
					<path class="st5" d="M489.93,234.31c0,0,9.48,23.35,24.37,19.53c5.07-1.3,5.1-6.74,4.46-10.33c-0.85-4.67-3.71-9.8-1.4-12.62
						l-15.53-15.01l-3.42-3.31C498.41,212.57,496.95,222.72,489.93,234.31z"/>
					<path class="st12" d="M518.76,243.51c-0.85-4.67-3.71-9.8-1.4-12.62l-15.53-15.01c-0.81,1.42-1.14,3.73-0.79,7.18
						C502.86,241.29,513.13,243.64,518.76,243.51z"/>
					<path class="st5" d="M534.73,194.33c0,0,2.5,30.93-8.56,40.11c-9.61,7.98-26.09-7.44-27.52-16.36c0,0-5.37-2.68-5.69-8.62
						s6.16-5.19,8.68,4c0,0,4.91-1.31,3.6-13.14c3.62,1.99,6.84,0.55,9.78-3.28c0,0,3,6.15,10.59-3.16
						C525.61,193.87,529.91,197.85,534.73,194.33z"/>
				</g>
			</g>
			<g>
				<g>
					<linearGradient id="SVGID_1_" gradientUnits="userSpaceOnUse" x1="372.2396" y1="396.5315" x2="372.2396" y2="299.6471">
						<stop  offset="0" style="stop-color:#1F3A65"/>
						<stop  offset="1" style="stop-color:#294A7A"/>
					</linearGradient>
					<path class="st15" d="M456.1,385.76v0.02c-0.47,1.9-1.13,3.64-1.98,5.2c-7.78,14.22-41.46,11.88-41.46,11.88h-76.89
						c-31.82,0-44.57-0.79-47.62-10.72c-0.18-0.53-0.31-1.1-0.42-1.69c-2.16-11.55,8.58-49.11,28.44-74.88
						c10.16-13.17,20.66-20.11,30.02-23.74c8.94-3.46,16.83-3.91,22.37-3.91c9.76,0,17.63,0.72,24.31,2.29
						c17.94,4.2,27.33,14.35,41.4,32.33C451.48,344.52,459.95,370.33,456.1,385.76z"/>
					<path class="st16" d="M320.87,376.64c8.34-13.12,10.97-31.33,13.29-49.8l7.25,37.57h62.8l11.54-37.57
						c-0.27,17.56,2.14,34.78,10.47,51.26C426.21,378.09,385.15,424.56,320.87,376.64z"/>
					<linearGradient id="SVGID_2_" gradientUnits="userSpaceOnUse" x1="313.7884" y1="404.046" x2="313.7884" y2="378.0009">
						<stop  offset="0" style="stop-color:#1F3A65"/>
						<stop  offset="1" style="stop-color:#294A7A"/>
					</linearGradient>
					<path class="st17" d="M339.94,402.86h-4.17c-31.82,0-44.57-0.79-47.62-10.72c-1.66-7.81,0.45-16.02,9.97-18.47
						c14.91-3.83,40.87,11.27,40.87,11.27L339.94,402.86z"/>
					<linearGradient id="SVGID_3_" gradientUnits="userSpaceOnUse" x1="423.0565" y1="404.046" x2="423.0565" y2="378.0009">
						<stop  offset="0" style="stop-color:#1F3A65"/>
						<stop  offset="1" style="stop-color:#294A7A"/>
					</linearGradient>
					<path class="st18" d="M456.1,385.76c0,0,0.02,0,0,0.02c-0.47,1.9-1.13,3.64-1.98,5.2c-7.78,14.22-41.46,11.88-41.46,11.88
						h-22.82l2.9-19.32c0,0,40.45-18.73,54.94-12.88C454.77,373.5,456.94,379.43,456.1,385.76z"/>
					<path class="st19" d="M392.87,290.21c-0.68,9.03-4.41,25.49-22.61,25.49c-19.18,0-23.24-16.22-24.07-23.86
						c8.94-3.46,16.83-3.91,22.37-3.91C378.31,287.92,386.19,288.64,392.87,290.21z"/>
				</g>
				<g>
					<path class="st3" d="M409.44,402.85h-73.67c-1.78,0-3.22-1.44-3.22-3.22l0,0c0-1.78,1.44-3.22,3.22-3.22h73.67
						c1.78,0,3.22,1.44,3.22,3.22l0,0C412.66,401.41,411.22,402.85,409.44,402.85z"/>
					<linearGradient id="SVGID_4_" gradientUnits="userSpaceOnUse" x1="391.5076" y1="394.2581" x2="357.6921" y2="340.5827">
						<stop  offset="0" style="stop-color:#3855E1"/>
						<stop  offset="1" style="stop-color:#5C7EF7"/>
					</linearGradient>
					<path class="st20" d="M418.36,347.47l-0.27,1.67v0.02l-7.63,47.26h-75.09l-7.55-48.98c-0.37-2.4,1.5-4.57,3.91-4.57h82.72
						C416.89,342.86,418.74,345.05,418.36,347.47z"/>
					<path class="st21" d="M418.08,349.16l-7.63,47.26h-74.68l25.31-2.64C387.07,391.09,409.21,373.73,418.08,349.16z"/>
				</g>
				<g>
					<g>
						<path class="st22" d="M369.95,308.85h-0.5c-2.9,0-5.3-0.6-7.25-1.47c-4.73-2.13-7.6-7.07-7.49-12.25
							c0.02-0.53,0.02-1.05,0.02-1.56c0.02-4.3-0.26-7.87-0.26-7.87v-1.93l27.05-1.21c0.1,3.9,0.55,7.36,1.08,10.13
							c0.02,0.05,0.02,0.08,0.03,0.13C384.19,300.95,378.23,308.64,369.95,308.85z"/>
						<path class="st23" d="M382.61,292.69c-11.27,13.24-22.85,5.51-27.87,0.89c0.02-4.3-0.26-7.87-0.26-7.87v-1.93l27.05-1.21
							C381.63,286.45,382.08,289.92,382.61,292.69z"/>
					</g>
					<g>
						<path class="st22" d="M346.2,270.62c0,0,8.39,23.64,22.38,23.64c13.99,0,19.81-25.46,19.81-25.46v-22.14h-43.25L346.2,270.62z
							"/>
						<path class="st22" d="M341.7,257.28c0,0-4.12,0.75-3.42,5.48c0.7,4.73,5,10.47,8.49,7.45L341.7,257.28z"/>
						<path class="st22" d="M391.65,255.3c0,0,4.18,0.19,4.13,4.97c-0.05,4.78-3.53,11.05-7.4,8.53L391.65,255.3z"/>
						<linearGradient id="SVGID_5_" gradientUnits="userSpaceOnUse" x1="366.0751" y1="262.975" x2="364.9943" y2="220.8201">
							<stop  offset="0" style="stop-color:#3F2323"/>
							<stop  offset="1" style="stop-color:#5E3434"/>
						</linearGradient>
						<path class="st24" d="M391.65,255.3c0,0-1.45,8.27-3.27,13.5c0,0-3.31-0.67-4.39-9.39c0,0-7.16,1.4-11.66-5.37
							c0,0-1.07,6.71-7.98,1.95c-4.61,3.76-10.06,4.16-16.24,1.61c0,0,1.04,8.8-1.91,13.02c0,0-1.07-3.48-4.5-13.34
							c0,0-1.47,0.05-2.41,1.39c0,0-7.41-14.5-3.92-21.47c3.49-6.98,8.19-4.29,8.19-4.29s-1.74-9.53,8.59-13.02
							c10.33-3.49,10.33-8.19,11.94-7.25c1.61,0.94,2.28,4.43,2.28,4.43s17.85-1.88,22.68,17.31c0,0,12.89,0.41,5.24,22.02
							C394.28,256.39,393.78,255.5,391.65,255.3z"/>
					</g>
				</g>
			</g>
			<path class="st4" d="M408.63,282.56"/>
			<g>
				<path class="st25" d="M322.69,275.39h-67.44c-2.19,0-3.97,1.78-3.97,3.97v40.25c0,2.19,1.78,3.97,3.97,3.97h46.52l12.13,10.75
					c0.92,0.81,2.32-0.12,1.92-1.28l-3.28-9.47h10.15c2.19,0,3.97-1.78,3.97-3.97v-40.25C326.67,277.17,324.89,275.39,322.69,275.39
					z"/>
				<g>
					<path class="st26" d="M276.17,286.16h-15.54c-0.58,0-1.06-0.47-1.06-1.06l0,0c0-0.58,0.47-1.06,1.06-1.06h15.54
						c0.58,0,1.06,0.47,1.06,1.06l0,0C277.23,285.69,276.76,286.16,276.17,286.16z"/>
					<path class="st26" d="M314.48,295.34h-45.02c-0.58,0-1.06-0.47-1.06-1.06l0,0c0-0.58,0.47-1.06,1.06-1.06h45.02
						c0.59,0,1.06,0.47,1.06,1.06l0,0C315.54,294.87,315.07,295.34,314.48,295.34z"/>
					<path class="st26" d="M314.48,301.88h-53.85c-0.58,0-1.06-0.47-1.06-1.06l0,0c0-0.58,0.47-1.06,1.06-1.06h53.85
						c0.59,0,1.06,0.47,1.06,1.06l0,0C315.54,301.4,315.07,301.88,314.48,301.88z"/>
					<path class="st26" d="M314.48,308.41h-53.85c-0.58,0-1.06-0.47-1.06-1.06l0,0c0-0.58,0.47-1.06,1.06-1.06h53.85
						c0.59,0,1.06,0.47,1.06,1.06l0,0C315.54,307.93,315.07,308.41,314.48,308.41z"/>
					<path class="st26" d="M314.48,314.94h-53.85c-0.58,0-1.06-0.47-1.06-1.06l0,0c0-0.59,0.47-1.06,1.06-1.06h53.85
						c0.59,0,1.06,0.47,1.06,1.06l0,0C315.54,314.47,315.07,314.94,314.48,314.94z"/>
				</g>
			</g>
			<g>
				<path class="st27" d="M621.69,413.32H132.17c-0.96,0-1.75-0.78-1.75-1.75v-6.97c0-0.96,0.78-1.75,1.75-1.75h489.52
					c0.96,0,1.75,0.78,1.75,1.75v6.97C623.43,412.54,622.65,413.32,621.69,413.32z"/>
				<g>
					<linearGradient id="SVGID_6_" gradientUnits="userSpaceOnUse" x1="500.5785" y1="389.9193" x2="521.5119" y2="389.9193">
						<stop  offset="0" style="stop-color:#1F3A65"/>
						<stop  offset="1" style="stop-color:#294A7A"/>
					</linearGradient>
					<path class="st28" d="M521.51,377.04h-20.93v18.12c0,4.22,3.42,7.65,7.65,7.65h5.64c4.22,0,7.65-3.42,7.65-7.65V377.04z"/>
					<linearGradient id="SVGID_7_" gradientUnits="userSpaceOnUse" x1="530.4736" y1="318.0181" x2="503.9042" y2="370.7543">
						<stop  offset="0" style="stop-color:#E2E8F7"/>
						<stop  offset="1" style="stop-color:#FFFFFF"/>
					</linearGradient>
					<path class="st29" d="M507.22,377.04v-5.59c0-0.92,0.74-1.66,1.66-1.66h2.11c0.92,0,1.66-0.74,1.66-1.66v-2.11
						c0-0.92-0.74-1.66-1.66-1.66h-6.79c-4.67,0-8.45-3.78-8.45-8.45l0,0c0-4.67,3.78-8.45,8.45-8.45h9.01
						c0.92,0,1.66-0.74,1.66-1.66v-0.75c0-4.84,3.92-8.76,8.76-8.76l0,0c4.84,0,8.76,3.92,8.76,8.76l0,0c0,5.22-4.24,9.46-9.46,9.46
						h-15.85c-0.92,0-1.66,0.74-1.66,1.66l0,0c0,0.92,0.74,1.66,1.66,1.66h8.66c3.2,0,5.79,2.59,5.79,5.79v3.62
						c0,3.2-2.59,5.79-5.79,5.79l0,0c-0.92,0-1.66,0.74-1.66,1.66v2.37H507.22z"/>
				</g>
			</g>
			<g>
				<g>
					<path class="st25" d="M492.15,347.4H437.2c-2.11,0-3.82-1.71-3.82-3.82v-69.44c0-2.11,1.71-3.82,3.82-3.82h54.95
						c2.11,0,3.82,1.71,3.82,3.82v69.44C495.98,345.69,494.26,347.4,492.15,347.4z"/>
					<path class="st30" d="M495.64,344.85h-54.95c-2.55,0-4.63-2.08-4.63-4.63v-69.44c0-2.55,2.08-4.63,4.63-4.63h54.95
						c2.55,0,4.63,2.08,4.63,4.63v69.44C500.27,342.77,498.19,344.85,495.64,344.85z M440.69,267.76c-1.67,0-3.02,1.35-3.02,3.02
						v69.44c0,1.67,1.35,3.02,3.02,3.02h54.95c1.67,0,3.02-1.35,3.02-3.02v-69.44c0-1.67-1.35-3.02-3.02-3.02H440.69z"/>
					<g>
						<path class="st31" d="M454.98,294.97h-12.21v-14.63h12.21V294.97z M444.38,293.36h8.99v-11.41h-8.99V293.36z"/>
						<path class="st32" d="M451.91,290.44l-3.63-4.05l1.2-1.08l2.2,2.46c1.12-1.47,3.85-4.42,9.04-6.56l0.61,1.49
							c-6.47,2.66-8.84,6.72-8.86,6.76L451.91,290.44z"/>
						<path class="st26" d="M486.13,285.83h-18.94c-0.66,0-1.2-0.54-1.2-1.2l0,0c0-0.66,0.54-1.2,1.2-1.2h18.94
							c0.66,0,1.2,0.54,1.2,1.2l0,0C487.32,285.29,486.79,285.83,486.13,285.83z"/>
						<path class="st26" d="M486.13,291.63h-18.94c-0.66,0-1.2-0.54-1.2-1.2l0,0c0-0.66,0.54-1.2,1.2-1.2h18.94
							c0.66,0,1.2,0.54,1.2,1.2l0,0C487.32,291.1,486.79,291.63,486.13,291.63z"/>
					</g>
					<g>
						<path class="st31" d="M454.98,317.38h-12.21v-14.63h12.21V317.38z M444.38,315.77h8.99v-11.41h-8.99V315.77z"/>
						<path class="st32" d="M451.91,312.85l-3.63-4.05l1.2-1.08l2.2,2.46c1.12-1.47,3.85-4.42,9.04-6.56l0.61,1.49
							c-6.47,2.66-8.84,6.72-8.86,6.77L451.91,312.85z"/>
						<path class="st26" d="M486.13,308.24h-18.94c-0.66,0-1.2-0.54-1.2-1.2l0,0c0-0.66,0.54-1.2,1.2-1.2h18.94
							c0.66,0,1.2,0.54,1.2,1.2l0,0C487.32,307.7,486.79,308.24,486.13,308.24z"/>
						<path class="st26" d="M486.13,314.04h-18.94c-0.66,0-1.2-0.54-1.2-1.2l0,0c0-0.66,0.54-1.2,1.2-1.2h18.94
							c0.66,0,1.2,0.54,1.2,1.2l0,0C487.32,313.51,486.79,314.04,486.13,314.04z"/>
					</g>
					<g>
						<path class="st31" d="M454.98,339.79h-12.21v-14.63h12.21V339.79z M444.38,338.18h8.99v-11.41h-8.99V338.18z"/>
						<path class="st32" d="M451.91,335.26l-3.63-4.05l1.2-1.08l2.2,2.46c1.12-1.47,3.85-4.42,9.04-6.56l0.61,1.49
							c-6.47,2.66-8.84,6.72-8.86,6.76L451.91,335.26z"/>
						<path class="st26" d="M486.13,330.64h-18.94c-0.66,0-1.2-0.54-1.2-1.2l0,0c0-0.66,0.54-1.2,1.2-1.2h18.94
							c0.66,0,1.2,0.54,1.2,1.2l0,0C487.32,330.11,486.79,330.64,486.13,330.64z"/>
						<path class="st26" d="M486.13,336.45h-18.94c-0.66,0-1.2-0.54-1.2-1.2l0,0c0-0.66,0.54-1.2,1.2-1.2h18.94
							c0.66,0,1.2,0.54,1.2,1.2l0,0C487.32,335.92,486.79,336.45,486.13,336.45z"/>
					</g>
				</g>
				<g>
					<path class="st25" d="M685.19,241.21h-54.95c-2.11,0-3.82-1.71-3.82-3.82v-69.44c0-2.11,1.71-3.82,3.82-3.82h54.95
						c2.11,0,3.82,1.71,3.82,3.82v69.44C689.01,239.49,687.3,241.21,685.19,241.21z"/>
					<path class="st30" d="M690.02,237.62h-54.95c-2.55,0-4.63-2.08-4.63-4.63v-69.44c0-2.55,2.08-4.63,4.63-4.63h54.95
						c2.55,0,4.63,2.08,4.63,4.63v69.44C694.65,235.54,692.57,237.62,690.02,237.62z M635.07,160.53c-1.67,0-3.02,1.35-3.02,3.02
						v69.44c0,1.66,1.35,3.02,3.02,3.02h54.95c1.67,0,3.02-1.35,3.02-3.02v-69.44c0-1.66-1.35-3.02-3.02-3.02H635.07z"/>
					<g class="st33">
						
							<ellipse transform="matrix(0.2307 -0.973 0.973 0.2307 315.3555 768.2961)" class="st34" cx="643.56" cy="184.71" rx="9.66" ry="9.66"/>
						<path class="st35" d="M646.11,183.44l6.44-11.47c5.9,1.48,8.72,7.04,5.9,12.75L646.11,183.44z"/>
						<g>
							<path class="st26" d="M640.07,204.84c0,1.56-1.26,2.82-2.82,2.82s-2.82-1.26-2.82-2.82c0-1.56,1.26-2.82,2.82-2.82
								S640.07,203.28,640.07,204.84z"/>
							<path class="st26" d="M640.07,217.32c0,1.56-1.26,2.82-2.82,2.82s-2.82-1.26-2.82-2.82c0-1.56,1.26-2.82,2.82-2.82
								S640.07,215.76,640.07,217.32z"/>
							<path class="st26" d="M676.84,207.66h-22.54c-1.56,0-2.82-1.26-2.82-2.82l0,0c0-1.56,1.26-2.82,2.82-2.82h22.54
								c1.56,0,2.82,1.26,2.82,2.82l0,0C679.66,206.4,678.39,207.66,676.84,207.66z"/>
							<path class="st26" d="M676.84,220.14h-22.54c-1.56,0-2.82-1.26-2.82-2.82l0,0c0-1.56,1.26-2.82,2.82-2.82h22.54
								c1.56,0,2.82,1.26,2.82,2.82l0,0C679.66,218.88,678.39,220.14,676.84,220.14z"/>
							<path class="st26" d="M640.07,230c0,1.56-1.26,2.82-2.82,2.82s-2.82-1.26-2.82-2.82c0-1.56,1.26-2.82,2.82-2.82
								S640.07,228.45,640.07,230z"/>
							<path class="st26" d="M676.84,232.82h-22.54c-1.56,0-2.82-1.26-2.82-2.82l0,0c0-1.56,1.26-2.82,2.82-2.82h22.54
								c1.56,0,2.82,1.26,2.82,2.82l0,0C679.66,231.56,678.39,232.82,676.84,232.82z"/>
						</g>
					</g>
				</g>
				<g>
					<path class="st25" d="M215.21,218.58h-54.95c-2.11,0-3.82-1.71-3.82-3.82v-82.32c0-2.11,1.71-3.82,3.82-3.82h54.95
						c2.11,0,3.82,1.71,3.82,3.82v82.32C219.03,216.87,217.32,218.58,215.21,218.58z"/>
					<path class="st30" d="M211.72,215.9h-54.95c-2.55,0-4.63-2.08-4.63-4.63v-82.32c0-2.55,2.08-4.63,4.63-4.63h54.95
						c2.55,0,4.63,2.08,4.63,4.63v82.32C216.35,213.82,214.27,215.9,211.72,215.9z M156.77,125.93c-1.66,0-3.02,1.35-3.02,3.02
						v82.32c0,1.66,1.35,3.02,3.02,3.02h54.95c1.66,0,3.02-1.35,3.02-3.02v-82.32c0-1.66-1.35-3.02-3.02-3.02H156.77z"/>
					<g>
						<path class="st34" d="M184.78,165.64l-0.79,0.7c-0.5,0.44-1.26,0.4-1.7-0.1l-8.06-9.08l2.59-2.3l8.06,9.08
							C185.33,164.44,185.28,165.2,184.78,165.64z"/>
						<path class="st34" d="M171.42,140.49c-5.1,0-9.26,4.14-9.26,9.26s4.15,9.26,9.26,9.26c5.12,0,9.26-4.14,9.26-9.26
							S176.54,140.49,171.42,140.49z M171.42,156.06c-3.48,0-6.31-2.82-6.31-6.31c0-3.49,2.83-6.31,6.31-6.31
							c3.49,0,6.31,2.82,6.31,6.31C177.73,153.24,174.91,156.06,171.42,156.06z"/>
						<path class="st26" d="M208.93,145.59h-14.63c-0.93,0-1.68-0.75-1.68-1.68l0,0c0-0.93,0.75-1.68,1.68-1.68h14.63
							c0.93,0,1.68,0.75,1.68,1.68l0,0C210.61,144.83,209.86,145.59,208.93,145.59z"/>
						<path class="st26" d="M208.93,154.31h-14.63c-0.93,0-1.68-0.75-1.68-1.68l0,0c0-0.93,0.75-1.68,1.68-1.68h14.63
							c0.93,0,1.68,0.75,1.68,1.68l0,0C210.61,153.56,209.86,154.31,208.93,154.31z"/>
						<path class="st26" d="M208.93,162.36h-14.63c-0.93,0-1.68-0.75-1.68-1.68l0,0c0-0.93,0.75-1.68,1.68-1.68h14.63
							c0.93,0,1.68,0.75,1.68,1.68l0,0C210.61,161.61,209.86,162.36,208.93,162.36z"/>
						<path class="st26" d="M190.72,184.77h-22.54c-1.06,0-1.91-0.86-1.91-1.91l0,0c0-1.06,0.86-1.91,1.91-1.91h22.54
							c1.06,0,1.91,0.86,1.91,1.91l0,0C192.63,183.91,191.77,184.77,190.72,184.77z"/>
						<path class="st26" d="M190.72,196.74h-22.54c-1.06,0-1.91-0.86-1.91-1.91l0,0c0-1.06,0.86-1.91,1.91-1.91h22.54
							c1.06,0,1.91,0.86,1.91,1.91l0,0C192.63,195.89,191.77,196.74,190.72,196.74z"/>
						<path class="st26" d="M190.72,208.72h-22.54c-1.06,0-1.91-0.86-1.91-1.91l0,0c0-1.06,0.86-1.91,1.91-1.91h22.54
							c1.06,0,1.91,0.86,1.91,1.91l0,0C192.63,207.86,191.77,208.72,190.72,208.72z"/>
						<path class="st26" d="M208.38,182.86c0,1.7-1.37,3.07-3.07,3.07c-1.7,0-3.07-1.37-3.07-3.07c0-1.7,1.37-3.07,3.07-3.07
							C207.01,179.79,208.38,181.16,208.38,182.86z"/>
						<path class="st26" d="M208.38,194.83c0,1.7-1.37,3.07-3.07,3.07c-1.7,0-3.07-1.37-3.07-3.07c0-1.7,1.37-3.07,3.07-3.07
							C207.01,191.76,208.38,193.14,208.38,194.83z"/>
						<path class="st26" d="M208.38,206.81c0,1.7-1.37,3.07-3.07,3.07c-1.7,0-3.07-1.37-3.07-3.07c0-1.7,1.37-3.07,3.07-3.07
							C207.01,203.74,208.38,205.11,208.38,206.81z"/>
					</g>
				</g>
				<g>
					<path class="st25" d="M483.7,219.84H383.06c-3.67,0-6.64-2.97-6.64-6.64v-66.83c0-3.67,2.97-6.64,6.64-6.64H483.7
						c3.67,0,6.64,2.97,6.64,6.64v66.83C490.34,216.87,487.37,219.84,483.7,219.84z"/>
					<path class="st30" d="M487.19,216.96H386.55c-4.11,0-7.45-3.34-7.45-7.45v-66.83c0-4.11,3.34-7.45,7.45-7.45h100.64
						c4.11,0,7.45,3.34,7.45,7.45v66.83C494.64,213.62,491.29,216.96,487.19,216.96z M386.55,136.85c-3.22,0-5.84,2.62-5.84,5.84
						v66.83c0,3.22,2.62,5.84,5.84,5.84h100.64c3.22,0,5.84-2.62,5.84-5.84v-66.83c0-3.22-2.62-5.84-5.84-5.84H386.55z"/>
					<g>
						<path class="st36" d="M446.46,156.04h-55.76c-1.61,0-2.92-1.31-2.92-2.92l0,0c0-1.61,1.31-2.92,2.92-2.92h55.76
							c1.61,0,2.92,1.31,2.92,2.92l0,0C449.38,154.73,448.07,156.04,446.46,156.04z"/>
						<path class="st31" d="M447.32,198.91h-57.47c-1.14,0-2.06-0.92-2.06-2.06v-28.48c0-1.14,0.92-2.06,2.06-2.06h57.47
							c1.14,0,2.06,0.92,2.06,2.06v28.48C449.38,197.98,448.46,198.91,447.32,198.91z"/>
						<path class="st36" d="M476.05,156.04h-16.51c-1.61,0-2.92-1.31-2.92-2.92l0,0c0-1.61,1.31-2.92,2.92-2.92h16.51
							c1.61,0,2.92,1.31,2.92,2.92l0,0C478.97,154.73,477.66,156.04,476.05,156.04z"/>
						<path class="st36" d="M477.16,171.53h-17.34c-1,0-1.81-0.81-1.81-1.81l0,0c0-1,0.81-1.81,1.81-1.81h17.34
							c1,0,1.81,0.81,1.81,1.81l0,0C478.97,170.72,478.16,171.53,477.16,171.53z"/>
						<path class="st36" d="M477.16,179.72h-17.34c-1,0-1.81-0.81-1.81-1.81l0,0c0-1,0.81-1.81,1.81-1.81h17.34
							c1,0,1.81,0.81,1.81,1.81l0,0C478.97,178.91,478.16,179.72,477.16,179.72z"/>
						<path class="st36" d="M477.16,187.9h-17.34c-1,0-1.81-0.81-1.81-1.81l0,0c0-1,0.81-1.81,1.81-1.81h17.34
							c1,0,1.81,0.81,1.81,1.81l0,0C478.97,187.09,478.16,187.9,477.16,187.9z"/>
						<path class="st36" d="M477.16,196.09h-17.34c-1,0-1.81-0.81-1.81-1.81l0,0c0-1,0.81-1.81,1.81-1.81h17.34
							c1,0,1.81,0.81,1.81,1.81l0,0C478.97,195.28,478.16,196.09,477.16,196.09z"/>
						<path class="st36" d="M465.38,211.66h-64.21c-1.33,0-2.42-1.08-2.42-2.42l0,0c0-1.33,1.08-2.42,2.42-2.42h64.21
							c1.33,0,2.42,1.08,2.42,2.42l0,0C467.8,210.57,466.72,211.66,465.38,211.66z"/>
					</g>
				</g>
				<g>
					<path class="st25" d="M160.7,301.83H65.43c-2.96,0-5.37-2.4-5.37-5.37v-57.7c0-2.96,2.4-5.37,5.37-5.37h95.27
						c2.96,0,5.37,2.4,5.37,5.37v57.7C166.07,299.42,163.67,301.83,160.7,301.83z"/>
					<path class="st30" d="M156.8,298.67H61.52c-3.4,0-6.17-2.77-6.17-6.17v-57.7c0-3.4,2.77-6.17,6.17-6.17h95.27
						c3.4,0,6.17,2.77,6.17,6.17v57.7C162.97,295.9,160.2,298.67,156.8,298.67z M61.52,230.24c-2.52,0-4.56,2.05-4.56,4.56v57.7
						c0,2.52,2.05,4.56,4.56,4.56h95.27c2.52,0,4.56-2.05,4.56-4.56v-57.7c0-2.52-2.05-4.56-4.56-4.56H61.52z"/>
					<g class="st33">
						<path class="st34" d="M98.21,264.98c-2.46,2.48-5.88,4.01-9.66,4.01c-7.54,0-13.66-6.12-13.66-13.65
							c0-7.55,6.12-13.67,13.66-13.67c1.53,0,3.01,0.26,4.38,0.72l-4.38,12.95L98.21,264.98z"/>
						<path class="st35" d="M104.02,254.28c0,3.2-1.3,6.1-3.4,8.19l-8.2-8.19l3.72-10.99C100.71,244.83,104.02,249.17,104.02,254.28
							z"/>
						<path class="st26" d="M150.17,269.8h-31.4v-26.51c0-0.45,0.36-0.81,0.81-0.81c0.44,0,0.81,0.36,0.81,0.81v24.9h29.79
							c0.45,0,0.81,0.36,0.81,0.81C150.97,269.44,150.61,269.8,150.17,269.8z"/>
						<rect x="125.34" y="256.14" class="st26" width="4.03" height="12.05"/>
						<rect x="133.66" y="250.03" class="st35" width="4.03" height="18.16"/>
						<rect x="141.85" y="259.11" class="st26" width="4.03" height="9.08"/>
						<path class="st26" d="M94.55,282.1H75.63c-0.78,0-1.41-0.63-1.41-1.41v0c0-0.78,0.63-1.41,1.41-1.41h18.92
							c0.78,0,1.41,0.63,1.41,1.41v0C95.96,281.47,95.33,282.1,94.55,282.1z"/>
						<path class="st26" d="M123.4,282.1h-18.92c-0.78,0-1.41-0.63-1.41-1.41v0c0-0.78,0.63-1.41,1.41-1.41h18.92
							c0.78,0,1.41,0.63,1.41,1.41v0C124.81,281.47,124.18,282.1,123.4,282.1z"/>
						<path class="st26" d="M150.5,282.1h-18.92c-0.78,0-1.41-0.63-1.41-1.41v0c0-0.78,0.63-1.41,1.41-1.41h18.92
							c0.78,0,1.41,0.63,1.41,1.41v0C151.91,281.47,151.28,282.1,150.5,282.1z"/>
						<path class="st26" d="M106.96,292.16H88.04c-0.78,0-1.41-0.63-1.41-1.41l0,0c0-0.78,0.63-1.41,1.41-1.41h18.92
							c0.78,0,1.41,0.63,1.41,1.41l0,0C108.37,291.53,107.74,292.16,106.96,292.16z"/>
						<path class="st26" d="M134.07,292.16h-18.92c-0.78,0-1.41-0.63-1.41-1.41l0,0c0-0.78,0.63-1.41,1.41-1.41h18.92
							c0.78,0,1.41,0.63,1.41,1.41l0,0C135.48,291.53,134.85,292.16,134.07,292.16z"/>
					</g>
				</g>
			</g>
		</g>
	</g>
</g>
</svg>
